<svg id="svg" version="1.1" xmlns="http://www.w3.org/2000/svg" xmlns:xlink="http://www.w3.org/1999/xlink" width="400" height="400" viewBox="0, 0, 400,400"><g id="svgg"><path id="path0" d="M130.360 68.893 C 129.193 69.325,119.262 79.385,118.798 80.605 C 118.361 81.756,118.318 202.537,118.752 212.993 L 119.000 218.986 124.600 220.098 L 130.200 221.210 175.800 221.051 C 221.248 220.892,226.341 220.752,236.352 219.381 C 241.355 218.696,242.600 218.112,244.975 215.338 C 246.640 213.393,249.349 211.894,253.058 210.866 C 254.629 210.431,257.508 209.447,259.457 208.680 C 261.406 207.913,263.990 207.064,265.200 206.792 C 267.284 206.324,268.800 205.466,268.800 204.753 C 268.800 201.012,275.469 194.003,279.030 194.000 C 280.016 194.000,281.236 191.967,282.158 188.787 C 282.698 186.924,283.531 184.500,284.007 183.400 C 284.484 182.300,285.240 179.960,285.686 178.200 C 286.643 174.430,287.926 171.738,289.744 169.686 C 294.207 164.648,294.863 161.474,294.884 144.848 C 294.901 131.146,294.462 127.593,292.413 124.866 C 291.600 123.784,290.523 122.021,290.019 120.949 C 289.516 119.877,288.587 118.280,287.956 117.400 C 286.631 115.552,285.523 112.584,284.670 108.600 C 283.866 104.848,281.560 100.637,279.647 99.430 C 278.027 98.407,275.765 95.999,275.144 94.637 C 274.927 94.162,273.996 93.295,273.075 92.712 C 272.154 92.128,270.860 91.129,270.200 90.491 C 269.540 89.853,268.002 88.879,266.782 88.325 C 263.958 87.045,261.978 85.303,260.783 83.050 C 259.540 80.706,258.179 80.089,251.800 78.974 C 243.992 77.610,234.874 75.642,233.282 74.976 C 232.505 74.652,229.586 73.859,226.794 73.213 C 224.001 72.568,221.016 71.773,220.159 71.446 C 219.301 71.119,215.450 70.386,211.600 69.817 L 204.600 68.782 167.876 68.691 C 147.677 68.641,130.795 68.732,130.360 68.893 M209.600 89.016 C 214.825 89.808,218.567 90.946,221.186 92.540 C 223.136 93.726,224.044 93.972,228.800 94.598 C 241.391 96.257,248.882 99.444,251.279 104.162 C 251.737 105.063,252.987 106.760,254.056 107.932 C 255.125 109.105,256.000 110.203,256.000 110.371 C 256.000 110.540,256.736 111.011,257.637 111.416 C 264.531 114.525,267.762 127.759,267.008 149.800 C 266.393 167.748,263.644 175.874,257.466 177.995 C 256.010 178.495,254.390 180.657,253.689 183.036 C 252.392 187.432,249.925 189.304,242.134 191.805 C 237.168 193.400,235.939 193.956,234.600 195.215 C 227.319 202.060,220.287 203.204,185.540 203.196 C 155.585 203.189,151.711 202.383,148.450 195.480 C 145.469 189.169,145.196 185.204,145.226 148.610 C 145.266 99.446,145.439 97.989,151.661 94.607 C 152.837 93.967,154.250 93.011,154.800 92.482 C 156.157 91.178,157.809 90.511,162.135 89.522 C 168.224 88.130,201.425 87.776,209.600 89.016 M128.349 274.254 C 122.522 277.840,118.772 280.573,118.572 281.381 C 118.461 281.831,118.422 290.595,118.485 300.855 L 118.600 319.511 121.424 322.631 C 122.978 324.347,125.633 327.004,127.325 328.535 L 130.401 331.320 132.720 331.250 C 134.025 331.211,136.956 330.594,139.420 329.839 L 143.800 328.498 144.483 324.549 C 145.526 318.515,145.516 281.508,144.471 277.420 L 143.759 274.641 138.580 273.739 C 135.731 273.243,132.927 272.748,132.349 272.639 C 131.580 272.493,130.510 272.925,128.349 274.254 " stroke="none" fill="#f9fbfa" fill-rule="evenodd"></path><path id="path1" d="M0.000 200.000 L 0.000 400.000 200.000 400.000 L 400.000 400.000 400.000 200.000 L 400.000 0.000 200.000 0.000 L 0.000 0.000 0.000 200.000 M223.600 58.197 C 246.546 59.757,253.336 61.427,259.531 67.033 C 260.848 68.225,262.046 69.200,262.194 69.200 C 262.341 69.200,263.932 69.808,265.731 70.550 C 267.529 71.293,270.260 72.371,271.800 72.947 C 275.188 74.212,277.570 76.371,279.249 79.698 C 279.899 80.984,280.738 82.138,281.115 82.261 C 286.316 83.968,290.241 87.893,291.349 92.494 C 291.807 94.395,293.675 97.058,295.083 97.817 C 300.101 100.519,302.189 106.173,304.974 124.600 C 305.539 128.340,306.575 134.186,307.274 137.590 L 308.547 143.780 307.847 148.790 C 307.462 151.546,306.894 154.880,306.584 156.200 C 306.274 157.520,305.652 161.300,305.201 164.600 C 302.679 183.074,300.227 189.813,295.006 192.624 C 293.890 193.226,293.453 193.801,293.030 195.222 C 291.667 199.812,288.520 204.215,283.062 209.167 C 282.436 209.735,280.937 211.218,279.730 212.461 C 277.353 214.911,274.341 216.700,270.665 217.842 C 268.695 218.455,268.214 218.796,267.585 220.029 C 265.041 225.015,259.818 227.132,243.114 229.948 C 237.292 230.929,235.509 231.395,233.114 232.561 C 224.599 236.707,218.106 237.174,168.722 237.188 C 115.800 237.204,117.869 237.411,112.839 231.581 C 109.788 228.045,109.361 227.216,108.165 222.500 L 107.200 218.697 107.228 150.049 C 107.259 72.909,107.336 68.892,108.860 65.582 C 110.764 61.446,113.980 58.907,118.418 58.037 C 121.705 57.393,213.833 57.532,223.600 58.197 M164.901 104.920 C 161.748 106.125,161.592 106.244,161.382 107.591 C 161.260 108.366,160.815 110.980,160.393 113.400 C 159.683 117.462,159.618 120.242,159.545 149.571 L 159.466 181.342 160.833 182.299 C 161.585 182.826,163.594 183.965,165.298 184.832 L 168.396 186.407 186.498 186.193 C 205.939 185.963,216.579 185.480,222.000 184.582 C 223.870 184.272,226.696 183.836,228.281 183.613 C 232.013 183.089,234.459 181.896,235.406 180.138 C 236.455 178.189,239.311 175.688,241.774 174.561 C 245.212 172.987,247.266 170.005,248.361 165.000 C 248.842 162.800,249.700 160.010,250.267 158.800 C 252.165 154.751,253.660 144.205,252.785 141.048 C 252.396 139.646,251.803 136.901,251.467 134.949 C 251.124 132.957,250.313 130.243,249.620 128.763 C 248.940 127.313,247.956 124.436,247.434 122.370 C 246.222 117.574,245.019 116.008,241.952 115.236 C 238.325 114.323,235.109 112.642,232.598 110.346 C 226.227 104.520,219.604 103.570,185.800 103.628 L 168.200 103.659 164.901 104.920 M146.118 259.031 C 150.572 260.185,153.846 262.457,155.387 265.464 C 155.821 266.309,156.553 267.470,157.015 268.045 C 159.342 270.938,160.691 306.259,159.176 324.600 C 158.624 331.285,158.637 331.230,157.103 333.134 C 156.386 334.022,155.338 335.526,154.774 336.475 C 151.809 341.460,148.865 342.200,132.000 342.200 C 106.859 342.199,107.292 342.926,107.228 300.660 C 107.163 258.319,106.975 258.618,133.742 258.459 C 141.646 258.412,144.184 258.529,146.118 259.031 " stroke="none" fill="#15b449" fill-rule="evenodd"></path><path id="path2" d="M118.418 58.037 C 113.980 58.907,110.764 61.446,108.860 65.582 C 107.336 68.892,107.259 72.909,107.228 150.049 L 107.200 218.697 108.165 222.500 C 109.361 227.216,109.788 228.045,112.839 231.581 C 117.869 237.411,115.800 237.204,168.722 237.188 C 218.106 237.174,224.599 236.707,233.114 232.561 C 235.509 231.395,237.292 230.929,243.114 229.948 C 259.818 227.132,265.041 225.015,267.585 220.029 C 268.214 218.796,268.695 218.455,270.665 217.842 C 274.341 216.700,277.353 214.911,279.730 212.461 C 280.937 211.218,282.436 209.735,283.062 209.167 C 288.520 204.215,291.667 199.812,293.030 195.222 C 293.453 193.801,293.890 193.226,295.006 192.624 C 300.227 189.813,302.679 183.074,305.201 164.600 C 305.652 161.300,306.274 157.520,306.584 156.200 C 306.894 154.880,307.462 151.546,307.847 148.790 L 308.547 143.780 307.274 137.590 C 306.575 134.186,305.539 128.340,304.974 124.600 C 302.189 106.173,300.101 100.519,295.083 97.817 C 293.675 97.058,291.807 94.395,291.349 92.494 C 290.241 87.893,286.316 83.968,281.115 82.261 C 280.738 82.138,279.899 80.984,279.249 79.698 C 277.570 76.371,275.188 74.212,271.800 72.947 C 270.260 72.371,267.529 71.293,265.731 70.550 C 263.932 69.808,262.341 69.200,262.194 69.200 C 262.046 69.200,260.848 68.225,259.531 67.033 C 253.336 61.427,246.546 59.757,223.600 58.197 C 213.833 57.532,121.705 57.393,118.418 58.037 M227.400 60.938 C 241.891 62.398,248.931 64.269,253.086 67.765 C 253.748 68.323,257.150 69.969,260.645 71.424 C 271.666 76.010,272.729 76.677,276.690 81.477 C 277.620 82.604,279.683 84.391,281.275 85.450 C 285.105 87.996,286.782 89.790,288.611 93.294 C 290.771 97.434,292.620 100.267,294.838 102.837 C 307.444 117.437,307.159 174.111,294.410 188.189 C 293.273 189.445,291.661 192.017,290.420 194.558 C 288.245 199.014,285.262 202.755,282.549 204.432 C 281.784 204.905,280.474 206.216,279.638 207.346 C 277.101 210.774,274.775 212.741,271.000 214.648 C 265.946 217.201,264.907 217.870,262.319 220.237 C 258.234 223.972,253.033 225.688,238.200 228.192 C 230.900 229.424,227.235 229.905,210.800 231.788 C 202.540 232.735,131.451 232.697,123.845 231.741 C 116.052 230.763,113.027 228.235,110.356 220.472 C 109.626 218.351,109.600 215.934,109.600 151.241 C 109.600 80.108,109.793 70.424,111.272 67.482 C 113.451 63.146,116.978 60.800,121.943 60.384 C 129.748 59.730,220.126 60.205,227.400 60.938 M163.600 102.625 C 156.473 104.996,155.858 105.402,155.477 108.000 C 154.641 113.704,154.686 181.007,155.527 182.656 C 156.376 184.321,161.031 187.193,166.140 189.204 L 168.480 190.125 186.740 189.887 C 219.306 189.460,232.483 187.106,240.334 180.310 C 241.800 179.041,243.114 178.002,243.254 178.001 C 243.763 177.999,249.532 170.714,250.318 169.081 C 250.763 168.157,251.602 166.140,252.183 164.600 C 252.765 163.060,254.034 160.623,255.005 159.185 L 256.769 156.570 257.314 150.185 C 258.117 140.793,257.066 132.337,254.757 129.596 C 253.196 127.743,250.874 123.128,249.972 120.083 C 249.116 117.193,245.338 113.469,241.243 111.479 C 239.152 110.463,237.014 109.045,235.800 107.868 C 230.374 102.611,220.028 101.191,187.325 101.214 L 167.800 101.228 163.600 102.625 M210.800 104.016 C 223.602 104.740,227.801 105.960,232.598 110.346 C 235.109 112.642,238.325 114.323,241.952 115.236 C 245.019 116.008,246.222 117.574,247.434 122.370 C 247.956 124.436,248.940 127.313,249.620 128.763 C 250.313 130.243,251.124 132.957,251.467 134.949 C 251.803 136.901,252.396 139.646,252.785 141.048 C 253.660 144.205,252.165 154.751,250.267 158.800 C 249.700 160.010,248.842 162.800,248.361 165.000 C 247.266 170.005,245.212 172.987,241.774 174.561 C 239.311 175.688,236.455 178.189,235.406 180.138 C 234.459 181.896,232.013 183.089,228.281 183.613 C 226.696 183.836,223.870 184.272,222.000 184.582 C 216.579 185.480,205.939 185.963,186.498 186.193 L 168.396 186.407 165.298 184.832 C 163.594 183.965,161.585 182.826,160.833 182.299 L 159.466 181.342 159.545 149.571 C 159.618 120.242,159.683 117.462,160.393 113.400 C 160.815 110.980,161.260 108.366,161.382 107.591 C 161.592 106.244,161.748 106.125,164.901 104.920 L 168.200 103.659 185.800 103.628 C 195.480 103.611,206.730 103.786,210.800 104.016 M120.400 258.810 C 108.335 259.845,107.171 263.545,107.228 300.660 C 107.292 342.926,106.859 342.199,132.000 342.200 C 148.865 342.200,151.809 341.460,154.774 336.475 C 155.338 335.526,156.386 334.022,157.103 333.134 C 158.637 331.230,158.624 331.285,159.176 324.600 C 160.691 306.259,159.342 270.938,157.015 268.045 C 156.553 267.470,155.821 266.309,155.387 265.464 C 152.120 259.091,141.238 257.022,120.400 258.810 M146.867 262.462 C 149.352 263.780,151.774 265.857,152.943 267.673 C 154.629 270.291,155.664 312.003,154.417 327.071 C 153.904 333.268,151.891 336.172,146.258 338.836 L 143.800 339.999 135.200 339.982 C 119.394 339.951,116.934 339.459,113.484 335.640 C 110.081 331.874,109.600 327.370,109.600 299.300 C 109.600 261.446,110.230 260.548,136.472 260.990 L 144.344 261.123 146.867 262.462 " stroke="none" fill="#48c570" fill-rule="evenodd"></path><path id="path3" d="M123.200 64.641 L 118.601 65.210 116.879 66.932 L 115.156 68.654 114.382 75.627 C 113.646 82.248,113.607 86.027,113.604 150.551 L 113.600 218.503 114.802 220.551 C 115.463 221.678,116.588 223.268,117.302 224.083 L 118.600 225.567 125.000 226.383 C 132.332 227.317,194.109 227.614,209.934 226.791 C 237.084 225.378,252.673 222.225,258.526 216.962 C 259.838 215.783,262.423 214.224,265.597 212.698 C 270.189 210.489,270.853 210.025,273.683 207.046 C 277.396 203.138,278.087 202.444,282.210 198.483 C 283.975 196.788,285.623 194.950,285.872 194.400 C 288.225 189.193,290.225 185.470,291.567 183.800 C 297.296 176.669,299.818 164.619,299.771 144.600 C 299.723 123.878,298.100 117.012,290.430 105.067 C 288.711 102.390,286.543 98.670,285.611 96.800 C 283.603 92.770,282.656 91.682,279.200 89.433 C 276.729 87.826,273.498 84.866,270.383 81.356 C 268.848 79.626,261.356 76.041,253.724 73.384 C 251.645 72.660,248.382 71.177,246.472 70.088 C 241.933 67.500,236.179 66.047,226.000 64.919 C 217.705 64.000,130.293 63.763,123.200 64.641 M211.600 69.817 C 215.450 70.386,219.301 71.119,220.159 71.446 C 221.016 71.773,224.001 72.568,226.794 73.213 C 229.586 73.859,232.505 74.652,233.282 74.976 C 234.874 75.642,243.992 77.610,251.800 78.974 C 258.179 80.089,259.540 80.706,260.783 83.050 C 261.978 85.303,263.958 87.045,266.782 88.325 C 268.002 88.879,269.540 89.853,270.200 90.491 C 270.860 91.129,272.154 92.128,273.075 92.712 C 273.996 93.295,274.927 94.162,275.144 94.637 C 275.765 95.999,278.027 98.407,279.647 99.430 C 281.560 100.637,283.866 104.848,284.670 108.600 C 285.523 112.584,286.631 115.552,287.956 117.400 C 288.587 118.280,289.516 119.877,290.019 120.949 C 290.523 122.021,291.600 123.784,292.413 124.866 C 294.462 127.593,294.901 131.146,294.884 144.848 C 294.863 161.474,294.207 164.648,289.744 169.686 C 287.926 171.738,286.643 174.430,285.686 178.200 C 285.240 179.960,284.484 182.300,284.007 183.400 C 283.531 184.500,282.698 186.924,282.158 188.787 C 281.236 191.967,280.016 194.000,279.030 194.000 C 275.469 194.003,268.800 201.012,268.800 204.753 C 268.800 205.466,267.284 206.324,265.200 206.792 C 263.990 207.064,261.406 207.913,259.457 208.680 C 257.508 209.447,254.629 210.431,253.058 210.866 C 249.349 211.894,246.640 213.393,244.975 215.338 C 242.600 218.112,241.355 218.696,236.352 219.381 C 226.341 220.752,221.248 220.892,175.800 221.051 L 130.200 221.210 124.600 220.098 L 119.000 218.986 118.752 212.993 C 118.318 202.537,118.361 81.756,118.798 80.605 C 119.262 79.385,129.193 69.325,130.360 68.893 C 130.795 68.732,147.677 68.641,167.876 68.691 L 204.600 68.782 211.600 69.817 M179.400 88.442 C 162.916 88.736,157.828 89.571,154.800 92.482 C 154.250 93.011,152.837 93.967,151.661 94.607 C 145.439 97.989,145.266 99.446,145.226 148.610 C 145.179 205.578,143.413 203.186,185.540 203.196 C 220.287 203.204,227.319 202.060,234.600 195.215 C 235.939 193.956,237.168 193.400,242.134 191.805 C 249.925 189.304,252.392 187.432,253.689 183.036 C 254.390 180.657,256.010 178.495,257.466 177.995 C 263.644 175.874,266.393 167.748,267.008 149.800 C 267.762 127.759,264.531 114.525,257.637 111.416 C 256.736 111.011,256.000 110.540,256.000 110.371 C 256.000 110.203,255.125 109.105,254.056 107.932 C 252.987 106.760,251.737 105.063,251.279 104.162 C 248.882 99.444,241.391 96.257,228.800 94.598 C 224.044 93.972,223.136 93.726,221.186 92.540 C 214.925 88.730,206.983 87.951,179.400 88.442 M213.400 97.602 C 227.896 98.846,235.202 100.813,240.000 104.766 C 240.990 105.582,242.835 106.931,244.100 107.764 C 248.752 110.826,252.485 114.956,254.800 119.600 C 255.293 120.590,256.461 122.570,257.395 124.000 C 261.185 129.802,262.376 136.624,261.794 149.195 C 261.379 158.160,260.305 161.558,255.412 169.400 C 246.850 183.121,241.439 187.263,227.456 190.802 C 223.966 191.685,220.966 192.498,220.788 192.608 C 215.976 195.581,173.101 197.419,164.200 195.033 C 155.893 192.807,154.068 191.231,151.340 183.932 C 150.608 181.975,150.450 109.941,151.170 106.736 C 152.654 100.132,158.538 97.642,173.800 97.159 C 184.589 96.818,207.202 97.071,213.400 97.602 M124.600 265.534 C 118.236 266.291,116.346 267.191,115.833 269.711 C 113.280 282.247,112.590 308.237,114.382 324.373 L 115.156 331.346 116.878 333.062 L 118.600 334.778 124.111 335.414 C 127.755 335.835,132.029 336.008,136.726 335.925 L 143.829 335.800 145.773 334.400 C 150.266 331.165,150.897 326.596,150.710 298.664 L 150.584 279.800 149.461 274.400 C 148.272 268.677,147.970 268.094,145.247 266.261 C 143.222 264.898,132.976 264.537,124.600 265.534 M138.580 273.739 L 143.759 274.641 144.471 277.420 C 145.516 281.508,145.526 318.515,144.483 324.549 L 143.800 328.498 139.420 329.839 C 136.956 330.594,134.025 331.211,132.720 331.250 L 130.401 331.320 127.325 328.535 C 125.633 327.004,122.978 324.347,121.424 322.631 L 118.600 319.511 118.485 300.855 C 118.422 290.595,118.461 281.831,118.572 281.381 C 118.960 279.813,130.744 272.335,132.349 272.639 C 132.927 272.748,135.731 273.243,138.580 273.739 " stroke="none" fill="#c4ecd4" fill-rule="evenodd"></path><path id="path4" d="M121.943 60.384 C 116.978 60.800,113.451 63.146,111.272 67.482 C 109.793 70.424,109.600 80.108,109.600 151.241 C 109.600 215.934,109.626 218.351,110.356 220.472 C 113.027 228.235,116.052 230.763,123.845 231.741 C 131.451 232.697,202.540 232.735,210.800 231.788 C 227.235 229.905,230.900 229.424,238.200 228.192 C 253.033 225.688,258.234 223.972,262.319 220.237 C 264.907 217.870,265.946 217.201,271.000 214.648 C 274.775 212.741,277.101 210.774,279.638 207.346 C 280.474 206.216,281.784 204.905,282.549 204.432 C 285.262 202.755,288.245 199.014,290.420 194.558 C 291.661 192.017,293.273 189.445,294.410 188.189 C 307.159 174.111,307.444 117.437,294.838 102.837 C 292.620 100.267,290.771 97.434,288.611 93.294 C 286.782 89.790,285.105 87.996,281.275 85.450 C 279.683 84.391,277.620 82.604,276.690 81.477 C 272.729 76.677,271.666 76.010,260.645 71.424 C 257.150 69.969,253.748 68.323,253.086 67.765 C 248.931 64.269,241.891 62.398,227.400 60.938 C 220.126 60.205,129.748 59.730,121.943 60.384 M226.000 64.919 C 236.179 66.047,241.933 67.500,246.472 70.088 C 248.382 71.177,251.645 72.660,253.724 73.384 C 261.356 76.041,268.848 79.626,270.383 81.356 C 273.498 84.866,276.729 87.826,279.200 89.433 C 282.656 91.682,283.603 92.770,285.611 96.800 C 286.543 98.670,288.711 102.390,290.430 105.067 C 298.100 117.012,299.723 123.878,299.771 144.600 C 299.818 164.619,297.296 176.669,291.567 183.800 C 290.225 185.470,288.225 189.193,285.872 194.400 C 285.623 194.950,283.975 196.788,282.210 198.483 C 278.087 202.444,277.396 203.138,273.683 207.046 C 270.853 210.025,270.189 210.489,265.597 212.698 C 262.423 214.224,259.838 215.783,258.526 216.962 C 252.673 222.225,237.084 225.378,209.934 226.791 C 194.109 227.614,132.332 227.317,125.000 226.383 L 118.600 225.567 117.302 224.083 C 116.588 223.268,115.463 221.678,114.802 220.551 L 113.600 218.503 113.604 150.551 C 113.607 86.027,113.646 82.248,114.382 75.627 L 115.156 68.654 116.879 66.932 L 118.601 65.210 123.200 64.641 C 130.293 63.763,217.705 64.000,226.000 64.919 M173.800 97.159 C 158.538 97.642,152.654 100.132,151.170 106.736 C 150.450 109.941,150.608 181.975,151.340 183.932 C 154.068 191.231,155.893 192.807,164.200 195.033 C 173.101 197.419,215.976 195.581,220.788 192.608 C 220.966 192.498,223.966 191.685,227.456 190.802 C 241.439 187.263,246.850 183.121,255.412 169.400 C 260.305 161.558,261.379 158.160,261.794 149.195 C 262.376 136.624,261.185 129.802,257.395 124.000 C 256.461 122.570,255.293 120.590,254.800 119.600 C 252.485 114.956,248.752 110.826,244.100 107.764 C 242.835 106.931,240.990 105.582,240.000 104.766 C 232.274 98.401,211.178 95.977,173.800 97.159 M212.725 101.617 C 225.096 102.494,232.255 104.433,235.800 107.868 C 237.014 109.045,239.152 110.463,241.243 111.479 C 245.338 113.469,249.116 117.193,249.972 120.083 C 250.874 123.128,253.196 127.743,254.757 129.596 C 257.066 132.337,258.117 140.793,257.314 150.185 L 256.769 156.570 255.005 159.185 C 254.034 160.623,252.765 163.060,252.183 164.600 C 251.602 166.140,250.763 168.157,250.318 169.081 C 249.532 170.714,243.763 177.999,243.254 178.001 C 243.114 178.002,241.800 179.041,240.334 180.310 C 232.483 187.106,219.306 189.460,186.740 189.887 L 168.480 190.125 166.140 189.204 C 161.031 187.193,156.376 184.321,155.527 182.656 C 154.686 181.007,154.641 113.704,155.477 108.000 C 155.858 105.402,156.473 104.996,163.600 102.625 L 167.800 101.228 187.325 101.214 C 198.064 101.206,209.494 101.387,212.725 101.617 M123.600 261.249 C 116.687 261.790,112.434 264.512,111.221 269.170 C 108.958 277.858,108.998 327.994,111.272 332.518 C 114.512 338.965,117.660 339.947,135.200 339.982 L 143.800 339.999 146.258 338.836 C 151.891 336.172,153.904 333.268,154.417 327.071 C 155.664 312.003,154.629 270.291,152.943 267.673 C 151.774 265.857,149.352 263.780,146.867 262.462 L 144.344 261.123 136.472 260.990 C 132.142 260.917,126.350 261.034,123.600 261.249 M145.247 266.261 C 147.970 268.094,148.272 268.677,149.461 274.400 L 150.584 279.800 150.710 298.664 C 150.897 326.596,150.266 331.165,145.773 334.400 L 143.829 335.800 136.726 335.925 C 132.029 336.008,127.755 335.835,124.111 335.414 L 118.600 334.778 116.878 333.062 L 115.156 331.346 114.382 324.373 C 113.108 312.907,113.230 284.278,114.585 276.590 C 116.070 268.164,115.953 268.531,117.548 267.311 C 120.810 264.815,141.911 264.015,145.247 266.261 " stroke="none" fill="#64cc84" fill-rule="evenodd"></path></g></svg>